<svg width="169" height="169" viewBox="0 0 169 169" fill="none" xmlns="http://www.w3.org/2000/svg">
<path d="M165.725 77.0079C167.512 77.0079 168.983 75.5576 169 73.7748C169.006 72.9035 168.672 72.0781 168.063 71.459C167.449 70.8342 166.633 70.4902 165.76 70.4788C165.49 70.0087 165.156 69.2864 164.8 68.4151C165.415 67.8247 165.805 66.9993 165.817 66.0878C165.834 64.3911 164.542 62.9809 162.887 62.8089C162.824 62.5682 162.76 62.3331 162.703 62.1039C163.864 61.5306 164.616 60.2982 164.513 58.9339L163.818 49.7622C163.685 47.9852 162.123 46.6209 160.307 46.7527C160.06 46.7699 159.819 46.8215 159.589 46.8903C159.417 46.5177 159.239 46.2254 159.066 46.0305C158.773 45.7094 158.118 45.4802 157.262 45.3139L158.078 43.021C158.371 42.2013 158.325 41.3128 157.952 40.5274C157.578 39.7421 156.917 39.146 156.09 38.8536C155.734 38.7275 155.366 38.6644 154.993 38.6644C153.712 38.6644 152.557 39.4154 152.022 40.5561L151.126 37.7358C150.689 36.3715 149.437 35.4601 148.006 35.4601C147.673 35.4601 147.334 35.5117 147.012 35.6148C146.467 35.7868 145.99 36.0906 145.605 36.5091L145.461 36.297C146.128 35.8441 146.605 35.162 146.794 34.3767L147.949 33.9181C148.759 33.5971 149.403 32.978 149.747 32.1755C150.092 31.3729 150.109 30.4902 149.787 29.6762C149.288 28.4208 148.093 27.6125 146.742 27.6125C146.329 27.6125 145.927 27.6928 145.536 27.8418L145.249 27.9565L143.169 21.4274C142.732 20.0631 141.48 19.1517 140.049 19.1517C139.716 19.1517 139.377 19.2032 139.055 19.3064C138.222 19.5701 137.544 20.1433 137.142 20.9172C136.74 21.6911 136.665 22.5738 136.929 23.405L137.263 24.4426C136.872 24.3853 136.475 24.3967 136.096 24.4712C136.102 23.1069 135.234 21.8458 133.919 21.3815C133.563 21.2554 133.195 21.1924 132.821 21.1924C131.54 21.1924 130.385 21.9433 129.851 23.084L129.42 21.7369C129.593 20.2981 128.794 18.9052 127.455 18.3377C127.254 18.2517 127.042 18.1886 126.823 18.1428C126.438 18.0224 126.042 17.9708 125.64 17.9937L127.915 16.3772C128.627 15.8728 129.098 15.1218 129.248 14.262C129.391 13.4021 129.196 12.5366 128.691 11.8258C128.076 10.9659 127.082 10.45 126.019 10.45C125.335 10.45 124.68 10.6564 124.123 11.0519L115.281 17.3288L114.884 17.0364L118.441 8.67299C119.147 7.01635 118.366 5.09602 116.706 4.39095C116.298 4.21898 115.867 4.133 115.43 4.133C114.115 4.133 112.931 4.91259 112.414 6.12211L109.403 13.1958C109.059 12.9951 108.725 12.8174 108.409 12.6569L110.104 8.67299C110.443 7.87046 110.455 6.98196 110.127 6.1737C109.8 5.36544 109.179 4.72916 108.369 4.39095C107.961 4.21898 107.53 4.133 107.094 4.133C105.778 4.133 104.594 4.91259 104.077 6.12211L103.032 8.58127L102.245 7.92778L102.894 5.6234C103.382 3.89224 102.365 2.08656 100.624 1.59931C100.337 1.51906 100.038 1.47894 99.7397 1.47894C98.5848 1.47894 97.5334 2.09229 96.9532 3.04386C96.212 2.48209 95.3789 1.96045 94.4884 1.52479C93.9081 0.613357 92.8912 0.00573244 91.7249 0.00573244C91.2595 0.00573244 90.8229 0.103181 90.4207 0.275151C88.858 0.0859844 87.2665 0.24649 85.767 0.91717C83.8365 1.78275 82.0842 2.47063 80.5157 2.94068C80.3548 1.28977 78.953 0 77.2581 0C75.454 0 73.9832 1.46747 73.9832 3.26742C73.4547 3.06105 72.7652 2.97507 71.9896 2.97507C71.3978 2.06363 70.3694 1.47894 69.2433 1.47894C68.9446 1.47894 68.6458 1.51906 68.3585 1.59931C67.514 1.83434 66.8188 2.38464 66.3879 3.14131C66.204 3.46805 66.0834 3.81772 66.0202 4.17886C65.279 4.46547 64.6528 4.78648 64.2219 5.10176C63.6186 4.49413 62.7855 4.133 61.895 4.133C61.4526 4.133 61.0275 4.21898 60.6195 4.39095C59.2579 4.96991 58.4938 6.36286 58.6489 7.75582C58.2065 7.81887 57.7641 7.86473 57.3332 7.89339L56.5805 6.11637C56.0635 4.90686 54.8857 4.12726 53.5642 4.12726C53.1218 4.12726 52.6967 4.21325 52.2888 4.38522C50.6686 5.0731 49.893 6.91317 50.5077 8.54114C47.9453 9.05132 45.4748 9.8825 44.8715 11.0462C44.3142 10.6506 43.6592 10.4443 42.9755 10.4443C41.9184 10.4443 40.9187 10.9602 40.304 11.82C39.7984 12.5308 39.5973 13.3964 39.7467 14.2563C39.8903 15.1161 40.3672 15.867 41.0796 16.3715L43.3547 17.988C42.9583 17.9651 42.5561 18.0167 42.1712 18.137C41.9529 18.1829 41.7403 18.2459 41.5392 18.3319C40.2005 18.8994 39.3962 20.2924 39.5743 21.7312L39.4939 21.9834L38.6953 22.3732C38.0863 21.6395 37.167 21.1866 36.1788 21.1866C35.8053 21.1866 35.4376 21.2497 35.0814 21.3758C33.7657 21.8401 32.9039 23.1012 32.9039 24.4655C32.5247 24.3852 32.1226 24.3738 31.7376 24.4368L32.0709 23.3993C32.6167 21.6853 31.6629 19.8453 29.9451 19.3007C29.6233 19.1975 29.2901 19.1459 28.9511 19.1459C27.5205 19.1459 26.2681 20.0631 25.8314 21.4216L23.7516 27.9507L23.4643 27.8361C23.0794 27.6813 22.6715 27.6068 22.2578 27.6068C20.9076 27.6068 19.7126 28.4151 19.2128 29.6704C18.5865 31.2468 19.276 33.0181 20.7583 33.7748C20.178 34.6346 19.6149 35.4429 19.2013 35.9874C18.5923 36.3887 18.1154 36.9906 17.8798 37.7301L16.9836 40.5504C16.455 39.4039 15.2944 38.6587 14.0132 38.6587C13.6398 38.6587 13.2721 38.7218 12.9158 38.8479C12.0943 39.1402 11.4335 39.7364 11.0544 40.5217C10.6809 41.307 10.6349 42.1955 10.928 43.0153L12.5424 47.5438C12.0713 47.7845 11.6461 48.0425 11.2612 48.3291C11.1635 48.1686 11.0601 48.0196 10.9337 47.8763C10.3649 47.217 9.57205 46.8158 8.69876 46.747C6.88897 46.6152 5.32623 47.9794 5.18834 49.7565L4.49316 58.9282C4.42996 59.7995 4.70573 60.6421 5.27452 61.3013C5.84331 61.9606 6.63617 62.3618 7.50947 62.4306C7.59565 62.4363 7.67608 62.4421 7.75652 62.4421C8.49767 62.4421 9.19286 62.1898 9.74441 61.7599C9.76739 62.1039 9.76739 62.4363 9.73866 62.7573L6.42359 62.786C4.61955 62.8032 3.16598 64.2821 3.18321 66.0821C3.1947 67.1712 3.74626 68.1343 4.57934 68.7189C4.20014 69.3094 3.91288 69.9055 3.72328 70.4673L3.24067 70.473C2.36737 70.4788 1.54579 70.8284 0.93678 71.4475C0.322027 72.0723 -0.0112031 72.8921 0.000287561 73.7634C0.0175236 75.5461 1.48259 76.9964 3.27514 76.9964L5.44689 76.9792C5.1826 79.2205 4.17142 81.972 3.33259 83.1472C2.59144 83.6115 2.07436 84.3338 1.87902 85.1821C1.68368 86.0305 1.83306 86.9076 2.29843 87.647C2.90169 88.6043 3.93586 89.1776 5.07344 89.1776C5.38369 89.1776 5.68819 89.1317 5.9812 89.0515C6.7281 90.2094 7.23944 91.2985 6.9177 92.1068C6.30869 92.7316 5.97546 93.5571 5.98695 94.4284L6.10186 103.623C6.12484 105.4 7.5899 106.85 9.37671 106.85H9.39969C9.39969 106.85 9.41692 106.85 9.42267 106.85C9.83059 106.845 10.2155 106.764 10.5775 106.621C10.6177 106.776 10.6522 106.931 10.6809 107.074L8.37702 107.297C6.57872 107.469 5.26303 109.069 5.43539 110.863C5.57328 112.279 6.59596 113.414 7.94611 113.723C7.48074 114.365 7.26242 115.151 7.33711 115.953C7.49798 117.633 8.89984 118.905 10.589 118.905C10.6981 118.905 10.8016 118.9 10.9107 118.888L20.8674 117.925L11.4795 125.01C10.7843 125.538 10.3304 126.3 10.2098 127.166C10.0891 128.031 10.3132 128.891 10.8418 129.585C11.468 130.41 12.416 130.88 13.4559 130.88C14.1741 130.88 14.8578 130.651 15.4266 130.221L19.6839 127.005C19.5977 127.315 19.5288 127.596 19.4943 127.831C18.6267 127.917 17.8396 128.329 17.2823 129.006C16.725 129.676 16.4665 130.53 16.5527 131.396C16.7135 133.076 18.1154 134.348 19.8045 134.348C19.9137 134.348 20.0171 134.342 20.1263 134.331L26.3083 133.735C26.7507 134.251 27.3367 134.612 27.9917 134.778C27.5205 136.125 27.9859 137.639 29.1637 138.493L31.5653 140.23C29.9049 140.419 28.6294 141.852 28.6696 143.549C28.7098 145.308 30.1806 146.741 31.9387 146.741L38.138 146.598C38.2586 147.103 38.385 147.596 38.5114 148.066C38.3103 148.025 38.0977 148.003 37.8909 148.003C36.5637 148.003 35.3744 148.794 34.8688 150.015C34.5356 150.823 34.5299 151.706 34.8631 152.514C35.1963 153.322 35.8226 153.947 36.6327 154.285L45.1415 157.816C45.5437 157.982 45.9631 158.068 46.394 158.068C47.7212 158.068 48.9105 157.277 49.4161 156.056C49.5827 155.661 49.6631 155.242 49.6689 154.83C49.8298 154.864 49.9849 154.899 50.14 154.933L49.4161 157.191C49.1518 158.023 49.2207 158.905 49.6229 159.679C50.0251 160.453 50.703 161.026 51.5361 161.296C51.8579 161.399 52.1968 161.451 52.5358 161.451C53.9664 161.451 55.2189 160.539 55.6498 159.181L55.759 158.837C56.0577 159.181 56.3622 159.473 56.661 159.708L55.7302 162.62C55.1787 164.334 56.1324 166.174 57.8503 166.724C58.172 166.827 58.511 166.879 58.85 166.879C60.2806 166.879 61.533 165.968 61.9639 164.609L64.7619 155.879C64.9056 155.867 65.0492 155.85 65.1928 155.839L67.8242 166.512C68.1862 167.974 69.4904 169 71.0014 169C71.2657 169 71.53 168.966 71.7885 168.903C73.5408 168.473 74.6152 166.701 74.1843 164.953L72.1275 156.624C75.1266 159.353 81.0385 166.306 86.692 163.858C86.7666 164.603 87.0884 165.326 87.6629 165.887C88.2777 166.484 89.0878 166.81 89.9438 166.81C90.8344 166.81 91.6732 166.461 92.2937 165.819L95.7122 162.305C95.4421 163.061 95.4479 163.875 95.7524 164.626C96.2522 165.87 97.4473 166.673 98.7859 166.673C99.2053 166.673 99.619 166.592 100.01 166.432L108.559 162.993C110.231 162.316 111.047 160.413 110.369 158.745C110.122 158.137 109.708 157.633 109.197 157.283C109.444 157.146 109.668 156.985 109.869 156.79L112.046 161.084C112.604 162.19 113.724 162.878 114.971 162.878C115.488 162.878 115.982 162.758 116.441 162.528C118.05 161.714 118.699 159.748 117.889 158.143L115.729 153.884C116.2 154.01 116.688 154.136 117.183 154.257L120.365 160.539C120.923 161.645 122.043 162.333 123.29 162.333C123.807 162.333 124.301 162.213 124.761 161.984C126.369 161.17 127.019 159.203 126.209 157.598L124.675 154.572C124.864 154.428 125.013 154.257 125.105 154.044C125.651 152.818 126.789 152.651 127.955 152.543L131.718 154.853C132.235 155.168 132.827 155.34 133.43 155.34C134.579 155.34 135.619 154.761 136.223 153.786C136.682 153.041 136.82 152.17 136.619 151.322C136.418 150.473 135.895 149.757 135.148 149.298L134.798 149.08C135.068 148.88 135.303 148.645 135.504 148.369C135.602 148.238 135.688 148.094 135.763 147.951L144.226 147.131C145.093 147.045 145.881 146.633 146.438 145.956C146.995 145.285 147.254 144.431 147.168 143.566C147.007 141.886 145.605 140.614 143.916 140.614C143.812 140.614 143.703 140.619 143.594 140.631C143.881 139.536 144.22 138.584 144.64 137.782L147.478 141.261C148.104 142.029 149.029 142.465 150.017 142.465C150.764 142.465 151.5 142.207 152.08 141.731C152.758 141.181 153.183 140.401 153.269 139.53C153.361 138.665 153.103 137.811 152.551 137.134L150.345 134.428C152.959 133.999 155.998 133.391 154.562 131.322C154.912 131.442 155.274 131.505 155.642 131.505C157.032 131.505 158.273 130.628 158.733 129.321C159.33 127.624 158.428 125.755 156.728 125.159L155.269 124.649C155.705 123.95 156.176 123.331 156.596 122.849C157.325 122.477 157.911 121.829 158.199 121.021C158.739 119.479 158.044 117.805 156.642 117.06C156.613 116.79 156.584 116.521 156.567 116.246C157.86 116.062 158.94 115.122 159.273 113.832L161.577 104.93C162.025 103.193 160.979 101.416 159.244 100.957C159.256 100.614 159.267 100.35 159.279 100.195C159.319 99.7594 158.733 98.3722 158.199 96.8589L158.325 96.7041C158.865 96.0219 159.112 95.1678 159.009 94.3023C158.905 93.4367 158.474 92.6628 157.791 92.1182C159.348 90.8973 163.927 89.2177 163.927 89.2177C165.064 89.2177 166.099 88.6445 166.702 87.6872C167.167 86.9477 167.317 86.0706 167.121 85.2223C166.926 84.3739 166.409 83.6516 165.668 83.1873L163.203 81.6453C163.381 79.4842 164.042 77.5868 165.725 77.0079Z" fill="#FDF1C4"/>
</svg>
