<svg width="200" height="200" viewBox="0 0 200 200" fill="none" xmlns="http://www.w3.org/2000/svg">
<path d="M198.784 110.348C199.662 100.485 200.889 88.9362 199.026 79.7105C197.119 70.2744 192.081 61.1311 187.686 52.8154C181.296 40.7233 174.269 30.2108 163.61 21.6779C155.863 15.4765 145.689 11.927 136.227 8.24966C127.668 4.92696 119.957 1.22205 110.348 0.386215C94.7347 -0.972 79.7835 1.28802 66.0707 6.59859C52.3581 11.9078 37.2086 18.5078 27.1168 29.0409C20.4016 36.0506 15.8941 44.7196 11.417 53.5082C5.76521 64.6009 1.68042 76.8125 0.507299 89.9728C-0.395147 100.104 -0.171901 111.366 1.81409 120.819C3.82164 130.374 9.6892 139.794 14.2483 148.181C21.0906 160.763 28.3245 171.652 39.783 180.244C54.0826 190.968 71.8084 196.394 90.9235 198.058C102.254 199.043 114.652 201.437 125.106 198.805C137.083 195.792 150.11 188.338 160.009 181.355C171.583 173.192 182.776 165.144 190.045 152.789C197.349 140.38 197.421 125.645 198.784 110.348Z" fill="#E56E2B"/>
<path d="M197.516 112.3C198.634 102.557 200.139 91.1541 198.526 81.9737C196.874 72.5871 192.117 63.4108 187.974 55.0703C181.951 42.9412 175.258 32.3613 164.92 23.6538C157.406 17.3246 147.425 13.5592 138.147 9.68799C129.759 6.18794 122.217 2.33046 112.725 1.26781C97.3009 -0.46022 82.4428 1.41083 68.7342 6.33234C55.0246 11.2538 39.8612 17.4139 29.6057 27.5965C22.7825 34.3698 18.1021 42.8422 13.4479 51.4328C7.576 62.2766 3.22387 74.2669 1.7325 87.265C0.584413 97.2729 0.523491 108.429 2.25188 117.836C3.99932 127.345 9.57173 136.815 13.875 145.229C20.3331 157.853 27.221 168.811 38.3497 177.598C52.2373 188.567 69.6492 194.372 88.531 196.488C99.7239 197.742 111.938 200.414 122.355 198.068C134.286 195.377 147.371 188.315 157.347 181.647C169.008 173.849 180.292 166.155 187.8 154.104C195.342 141.997 195.783 127.411 197.516 112.3Z" fill="#FAB539"/>
<path d="M195.263 112.356C196.354 102.839 197.823 91.6982 196.247 82.7309C194.635 73.5615 189.987 64.597 185.942 56.449C180.057 44.6017 173.518 34.2651 163.421 25.7583C156.08 19.5748 146.328 15.8974 137.266 12.1156C129.07 8.69662 121.702 4.92987 112.43 3.89058C97.3636 2.20242 82.8491 4.03082 69.4564 8.83823C56.0648 13.6456 41.2512 19.6641 31.2315 29.6089C24.5664 36.2282 19.9948 44.5041 15.4492 52.8967C9.71096 63.489 4.54874 74.7315 3.09145 87.4312C1.97007 97.2068 2.82147 108.574 4.51119 117.764C6.21732 127.053 11.6611 136.305 15.8642 144.523C22.173 156.856 28.9022 167.562 39.7739 176.145C53.3399 186.859 70.3502 192.531 88.7954 194.599C99.731 195.824 111.661 198.435 121.836 196.143C133.493 193.513 146.276 186.616 156.021 180.101C167.414 172.484 178.436 164.967 185.771 153.195C193.14 141.366 193.57 127.119 195.263 112.356" fill="#FCE591"/>
<path d="M193.549 101.578C193.549 92.2565 193.735 81.3275 191.215 72.8276C188.64 64.1339 183.151 55.9707 178.336 48.5307C171.331 37.713 163.863 28.4282 153.156 21.2961C145.372 16.112 135.535 13.6141 126.354 10.9389C118.051 8.52077 110.509 5.6765 101.428 5.6765C86.6727 5.6765 72.8418 9.01706 60.4256 15.1167C48.0086 21.215 34.3545 28.6399 25.7698 39.3421C20.0588 46.4632 16.5564 54.9603 13.0916 63.5674C8.71926 74.4318 5.90803 86.2174 5.90747 98.6531C5.90747 108.228 7.05889 118.771 9.71087 127.474C12.3912 136.271 18.6819 144.627 23.6584 152.117C31.1249 163.36 38.8186 172.98 50.2825 180.104C64.5885 188.992 81.6635 192.633 99.7281 192.633C110.437 192.633 122.263 193.866 131.846 190.544C142.827 186.743 154.42 178.688 163.12 171.331C173.291 162.733 183.115 154.27 188.9 142.093C194.713 129.858 193.549 116.034 193.549 101.578Z" fill="#FAB539"/>
<path d="M190.946 111.765C191.988 102.677 193.39 92.0405 191.885 83.4788C190.348 74.7204 185.908 66.1627 182.046 58.3832C176.426 47.0692 170.184 37.2001 160.542 29.0782C153.533 23.1724 144.22 19.6628 135.567 16.0514C127.743 12.7864 120.708 9.18874 111.854 8.19618C97.4678 6.58501 83.6098 8.33093 70.8217 12.9211C58.0331 17.5113 43.889 23.259 34.3223 32.7542C27.9578 39.0739 23.592 46.9771 19.2524 54.9904C13.7734 65.1042 9.71457 76.2889 8.32321 88.4126C7.25274 97.7483 7.19515 108.154 8.80837 116.928C10.4384 125.798 15.636 134.632 19.6495 142.479C25.673 154.255 32.0991 164.477 42.4784 172.673C55.4333 182.903 71.6737 188.318 89.2862 190.292C99.7281 191.462 111.12 193.957 120.836 191.766C131.966 189.257 144.17 182.671 153.477 176.45C164.354 169.176 174.879 162 181.881 150.758C188.917 139.464 189.329 125.86 190.946 111.765Z" fill="#E56E2B"/>
<path d="M190.605 101.504C190.605 92.4764 190.783 81.8897 188.345 73.6565C185.851 65.2377 180.534 57.3303 175.868 50.1226C169.085 39.6445 161.852 30.651 151.481 23.743C143.941 18.7225 134.413 16.3031 125.519 13.7117C117.476 11.3692 110.171 8.61424 101.376 8.61424C87.0829 8.61424 73.6865 11.8503 61.6603 17.7575C49.6342 23.6647 36.4077 30.8558 28.0929 41.2226C22.5607 48.121 19.1686 56.3514 15.8129 64.6878C11.5771 75.2099 8.85499 86.627 8.85443 98.6723C8.85443 107.946 9.96928 118.158 12.5377 126.589C15.1348 135.109 21.2268 143.202 26.0467 150.458C33.2796 161.347 40.7321 170.665 51.8358 177.565C65.693 186.175 82.2326 189.701 99.7293 189.701C110.103 189.701 121.556 190.896 130.841 187.679C141.476 183.994 152.705 176.194 161.133 169.068C170.983 160.74 180.499 152.544 186.103 140.748C191.733 128.897 190.605 115.507 190.605 101.504Z" fill="#FCE591"/>
<path d="M60.8911 124.237C55.1671 124.237 50.7905 120.908 46.0765 118.912C33.7645 114.856 32.8327 107.028 17.9848 107.028C14.8488 107.028 11.874 107.642 9.30127 108.864C9.43438 110.386 9.59949 111.907 9.79617 113.415L9.81898 113.584C9.90592 114.245 9.99994 114.905 10.1005 115.561L10.1527 115.904C10.2575 116.573 10.3678 117.239 10.4862 117.899L10.509 118.038C10.6378 118.75 10.7743 119.459 10.9194 120.161L10.9818 120.453C11.0996 121.02 11.2247 121.581 11.3544 122.137C11.4002 122.333 11.4458 122.527 11.4931 122.722C11.6077 123.199 11.7278 123.673 11.8512 124.142C11.9011 124.33 11.9495 124.521 12.0011 124.708C12.1727 125.343 12.3505 125.972 12.5379 126.589C15.135 135.109 21.227 143.202 26.0469 150.458C33.2798 161.347 40.7323 170.665 51.8359 177.565C65.6932 186.175 82.2328 189.701 99.7295 189.701C110.103 189.701 121.556 190.896 130.841 187.679C131.476 187.46 132.115 187.224 132.753 186.973C133.013 186.872 133.275 186.76 133.538 186.655C133.912 186.502 134.285 186.352 134.659 186.191C134.996 186.048 135.332 185.894 135.669 185.744C135.964 185.613 136.257 185.482 136.551 185.344C136.939 185.164 137.328 184.976 137.716 184.788C137.951 184.672 138.186 184.559 138.421 184.441C138.855 184.223 139.288 184.001 139.721 183.775C139.901 183.68 140.082 183.586 140.262 183.491C140.74 183.237 141.217 182.977 141.694 182.712L142.064 182.504C142.587 182.21 143.109 181.912 143.628 181.605L143.818 181.494C144.387 181.158 144.953 180.817 145.517 180.47C118.578 143.754 62.9048 124.237 60.8911 124.237Z" fill="#FCED9B"/>
<path d="M103.151 124.151C109.378 122.865 129.747 121.93 129.747 109.478C129.747 107.171 128.964 104.91 128.181 102.848C105.573 55.4776 77.9319 44.1939 75.995 42.9498C68.7957 38.4393 61.7709 31.2742 54.6445 25C44.3895 30.3367 33.9933 36.7841 27.0358 45.4573C21.5036 52.3556 18.1115 60.5861 14.7558 68.9224C11.1829 77.8003 8.6938 87.3162 8 97.3077C13.805 95.9921 20.3473 94.6311 29.5939 94.6311C60.2408 94.6311 73.5255 116.515 103.151 124.151Z" fill="#FCED9B"/>
<path d="M60.5541 110.26C53.4831 106.599 47.4239 101.609 39.6791 100.276C40.016 102.607 42.0366 103.272 43.7194 104.27C58.8704 111.923 72.3386 122.239 89.1721 125.566C87.1538 124.568 84.7962 124.236 82.7752 123.238C75.0319 118.578 68.2978 113.92 60.5541 110.26Z" fill="#FCED9B"/>
<path d="M95.6664 29.0629C87.6921 25.7677 78.7266 24.272 73.0693 18.747C75.9256 17.3626 77.767 18.5765 79.8106 19.2694C96.6804 26.4647 115.711 30.3469 128.508 42.0444C126.282 41.0697 124.645 39.3362 122.423 38.3615C112.942 35.2189 104 32.919 95.6664 29.0629Z" fill="#FCED9B"/>
<path d="M132.785 125.878C136.279 123.649 141.319 116.196 143.918 113.068C142.764 112.621 139.894 113.422 139.003 113.921C131.602 118.742 130.923 117.914 122.168 123.238C128.414 124.653 129.119 128.407 132.785 125.878Z" fill="#FCED9B"/>
<path d="M182.773 81.9747C178.582 79.8425 149.562 55.2323 146.073 52.0264L183.783 69.33C177.652 71.4636 187.219 84.4231 182.773 81.9747Z" fill="#FCED9B"/>
<path d="M152.018 88.7961C147.809 88.7961 147.009 90.6658 147.009 92.8214C147.009 98.2474 148.884 107.916 148.884 115.899C148.884 131.392 143.644 131.605 132.387 131.605C129.71 131.605 126.972 131.509 124.239 131.509C86.5139 131.509 124.378 143.487 156.847 169.158C161.813 161.574 169.503 157.281 177.583 153.569C180.905 149.72 183.83 145.532 186.103 140.748C187.186 138.469 188.017 136.132 188.655 133.744C180.592 117.855 162.82 88.7961 152.018 88.7961Z" fill="#FCED9B"/>
<path d="M105.67 41.7104C107.691 43.0411 109.711 44.3718 111.732 45.7039C121.496 57.3492 128.565 70.6607 138.33 82.3073C140.268 80.391 137.908 76.6503 146.073 76.6503C161.087 78.4773 174.356 85.3152 186.1 94.1547C140.91 56.4144 105.349 37.8694 95.5621 33.0345C99.3886 35.3509 102.077 38.9775 105.67 41.7104Z" fill="#FCED9B"/>
<path d="M175.868 50.1239C169.085 39.6444 161.852 30.651 151.481 23.7444C143.941 18.7225 134.413 16.303 125.519 13.7117C117.477 11.3692 110.171 8.61421 101.376 8.61421C92.5119 8.61421 83.9938 9.86104 75.9307 12.2159C114.212 20.5248 160.176 46.0383 181.256 58.595C179.492 55.6778 177.634 52.85 175.868 50.1239Z" fill="#FCED9B"/>
<path d="M32.4093 79.6294C22.0619 81.6599 16.1182 81.4908 14.7518 75.9465C13.3847 70.4009 33.3312 60.8535 39.8512 58.0091C46.3709 55.1662 66.6868 49.3869 77.7481 50.9362C113.617 55.9608 108.036 72.6293 95.3993 76.363C82.7626 80.0982 77.6481 64.7302 66.1754 63.6194C54.7007 62.51 55.0392 81.7643 47.4184 82.9246C39.7953 84.0862 37.1422 78.7015 32.4093 79.6294Z" fill="#FCE591"/>
<path d="M75.1447 82.5301C73.1245 82.9728 71.1039 82.7515 69.3082 83.4168C69.0844 83.6382 68.6344 83.8609 68.6344 84.0822C68.6344 88.0166 73.3094 88.0345 85.2458 95.6175C88.648 97.9724 89.5146 101.938 96.6501 101.938C108.65 101.938 108.928 89.6127 75.1447 82.5301Z" fill="#FCE591"/>
<path d="M173.222 130.446C171.731 128.636 171.247 126.803 169.511 125.204C169.084 125.008 168.565 124.61 168.23 124.617C162.267 124.749 164.135 128.974 157.48 140.013C155.291 143.166 149.631 144.082 152.523 150.529C157.387 161.372 176.182 161.208 173.222 130.446Z" fill="#FCE591"/>
<path d="M44.6487 166.583C42.9399 163.666 40.6839 161.517 39.388 158.614C39.3403 158.09 39.0621 157.3 39.2446 157.043C42.4819 152.505 47.2941 158.046 65.7834 163.504C71.213 164.837 75.3652 161.292 82.6891 169.786C95.0059 184.07 85.1511 198.624 44.6487 166.583Z" fill="#FCE591"/>
<path d="M48.3894 128.387C49.5555 130.782 51.2007 132.605 52.0423 134.965C52.0478 135.379 52.219 136.017 52.0597 136.208C49.2403 139.585 45.7923 134.943 31.5851 129.558C27.3966 128.188 23.9176 130.73 18.6738 123.618C9.85483 111.658 18.4858 100.798 48.3894 128.387Z" fill="#FCE591"/>
<path d="M112 69.6875C111.79 69.4057 111.585 69.1307 111.374 68.8544C111.459 68.4915 111.512 67.9842 111.512 67.422C111.512 66.3167 111.309 62.5802 111.059 62.5802C110.807 62.5802 110.604 66.3167 110.604 67.422C110.604 67.5732 110.608 67.7203 110.615 67.8619C110.394 67.5746 110.173 67.29 109.952 67.0095C110.084 64.843 110.529 61.0666 111.059 61.0666C111.69 61.0666 112.202 66.4556 112.202 68.0503C112.202 68.6579 112.127 69.2215 112 69.6875Z" fill="#FBC859"/>
<path d="M111.059 70.9384C110.426 70.9384 109.913 69.6448 109.913 68.0502C109.913 67.7903 109.926 67.4301 109.952 67.0094C110.173 67.2899 110.394 67.5745 110.615 67.8618C110.661 68.7554 110.842 69.4235 111.059 69.4235C111.181 69.4235 111.294 69.2062 111.374 68.8543C111.585 69.1306 111.79 69.4056 112 69.6874C111.795 70.4435 111.45 70.9384 111.059 70.9384Z" fill="#FCCC5D"/>
<path d="M111.375 68.8544C111.121 68.5203 110.868 68.189 110.615 67.8619C110.608 67.7203 110.604 67.5731 110.604 67.4219C110.604 66.3166 110.807 62.5802 111.059 62.5802C111.309 62.5802 111.512 66.3166 111.512 67.4219C111.512 67.9842 111.459 68.4914 111.375 68.8544Z" fill="#EF9E4E"/>
<path d="M111.059 69.4235C110.842 69.4235 110.661 68.7554 110.615 67.8619C110.868 68.189 111.121 68.5203 111.375 68.8544C111.294 69.2063 111.181 69.4235 111.059 69.4235Z" fill="#EFA252"/>
<path d="M136.31 48.3105C135.677 48.3105 135.165 47.0169 135.165 45.4236C135.165 43.8276 135.677 38.4387 136.31 38.4387C136.942 38.4387 137.455 43.8276 137.455 45.4236C137.455 47.0169 136.942 48.3105 136.31 48.3105ZM136.31 39.9523C136.058 39.9523 135.857 43.6887 135.857 44.794C135.857 45.8993 136.058 46.7956 136.31 46.7956C136.56 46.7956 136.763 45.8993 136.763 44.794C136.763 43.6887 136.56 39.9523 136.31 39.9523Z" fill="#FBC859"/>
<path d="M136.31 46.7957C136.058 46.7957 135.857 45.8993 135.857 44.794C135.857 43.6888 136.058 39.9523 136.31 39.9523C136.561 39.9523 136.764 43.6888 136.764 44.794C136.764 45.8993 136.561 46.7957 136.31 46.7957Z" fill="#EF9E4E"/>
<path d="M75.1001 37.4268C74.879 37.2742 74.6572 37.1174 74.4366 36.9607C74.3665 35.4499 74.2074 33.4084 74.0216 33.4084C73.8591 33.4084 73.7167 34.9756 73.6368 36.3806C73.4484 36.2431 73.2614 36.1029 73.0734 35.9613C73.2788 33.9954 73.6271 31.8935 74.0221 31.8935C74.5198 31.8935 74.942 35.2272 75.1001 37.4268Z" fill="#FBC859"/>
<path d="M74.0221 41.7654C73.3891 41.7654 72.8772 40.4732 72.8772 38.8785C72.8772 38.2791 72.9495 37.145 73.0733 35.9613C73.2614 36.1029 73.4483 36.2432 73.6368 36.3807C73.5928 37.145 73.5678 37.8613 73.5678 38.2503C73.5678 39.3556 73.771 40.2505 74.0215 40.2505C74.273 40.2505 74.4751 39.3556 74.4751 38.2503C74.4751 37.9616 74.4616 37.4942 74.4366 36.9608C74.6572 37.1175 74.8789 37.2742 75.1001 37.4268C75.1429 38.0234 75.1663 38.5376 75.1663 38.8785C75.1663 40.4732 74.6544 41.7654 74.0221 41.7654Z" fill="#FCCC5D"/>
<path d="M74.4367 36.9608C74.1699 36.771 73.9037 36.5772 73.6369 36.3807C73.7167 34.9757 73.8592 33.4085 74.0216 33.4085C74.2075 33.4085 74.3666 35.4499 74.4367 36.9608Z" fill="#EF9E4E"/>
<path d="M74.0213 40.2505C73.7708 40.2505 73.5676 39.3556 73.5676 38.2504C73.5676 37.8613 73.5927 37.1451 73.6366 36.3807C73.9034 36.5773 74.1696 36.7711 74.4364 36.9608C74.4614 37.4942 74.4749 37.9617 74.4749 38.2504C74.4749 39.3556 74.2728 40.2505 74.0213 40.2505Z" fill="#EFA252"/>
<path d="M64.5945 161.783C63.9626 161.783 63.4503 160.491 63.4503 158.895C63.4503 157.301 63.9626 151.911 64.5945 151.911C65.2275 151.911 65.7383 157.301 65.7383 158.895C65.7383 160.491 65.2275 161.783 64.5945 161.783ZM64.5945 153.425C64.344 153.425 64.1408 157.161 64.1408 158.266C64.1408 159.373 64.344 160.268 64.5945 160.268C64.8461 160.268 65.0488 159.373 65.0488 158.266C65.0488 157.161 64.8461 153.425 64.5945 153.425Z" fill="#FCCC5D"/>
<path d="M64.5945 160.268C64.344 160.268 64.1407 159.373 64.1407 158.266C64.1407 157.161 64.344 153.425 64.5945 153.425C64.8461 153.425 65.0488 157.161 65.0488 158.266C65.0488 159.373 64.8461 160.268 64.5945 160.268Z" fill="#EFA252"/>
<path d="M148.319 165.332C147.685 165.332 147.175 164.04 147.175 162.445C147.175 162.313 147.177 162.155 147.184 161.978C147.421 162.143 147.654 162.308 147.891 162.474C147.952 163.257 148.119 163.819 148.318 163.819C148.465 163.819 148.595 163.511 148.678 163.035C148.91 163.2 149.146 163.369 149.378 163.536C149.208 164.59 148.798 165.332 148.319 165.332Z" fill="#FBC859"/>
<path d="M149.378 163.536C149.146 163.369 148.911 163.2 148.678 163.035C148.737 162.697 148.772 162.275 148.772 161.816C148.772 160.711 148.568 156.976 148.318 156.976C148.068 156.976 147.866 160.711 147.866 161.816C147.866 162.047 147.874 162.268 147.891 162.475C147.655 162.308 147.421 162.143 147.184 161.978C147.26 159.997 147.738 155.459 148.319 155.459C148.951 155.459 149.463 160.851 149.463 162.446C149.463 162.831 149.432 163.199 149.378 163.536Z" fill="#FCCC5D"/>
<path d="M148.318 163.819C148.119 163.819 147.952 163.257 147.891 162.475C148.153 162.66 148.417 162.848 148.679 163.035C148.595 163.511 148.466 163.819 148.318 163.819Z" fill="#EF9E4E"/>
<path d="M148.678 163.035C148.417 162.848 148.152 162.66 147.891 162.474C147.874 162.268 147.866 162.047 147.866 161.816C147.866 160.711 148.068 156.975 148.318 156.975C148.568 156.975 148.771 160.711 148.771 161.816C148.771 162.275 148.737 162.697 148.678 163.035Z" fill="#EFA252"/>
<path d="M122.841 124.846C122.21 124.846 121.698 123.553 121.698 121.959C121.698 120.75 121.991 117.364 122.409 115.793C122.666 115.682 122.921 115.566 123.171 115.448C123.642 116.799 123.986 120.653 123.986 121.959C123.986 122.025 123.985 122.089 123.983 122.153C123.726 122.304 123.462 122.46 123.188 122.623C123.254 122.275 123.295 121.823 123.295 121.329C123.295 120.225 123.093 116.489 122.841 116.489C122.591 116.489 122.388 120.225 122.388 121.329C122.388 122.018 122.467 122.624 122.587 122.984C122.449 123.068 122.31 123.152 122.168 123.239C122.744 123.368 123.272 123.519 123.761 123.683C123.552 124.389 123.218 124.846 122.841 124.846Z" fill="#FBC859"/>
<path d="M122.409 115.793C122.543 115.291 122.689 114.974 122.842 114.974C122.957 114.974 123.067 115.15 123.171 115.448C122.921 115.566 122.666 115.681 122.409 115.793Z" fill="#FCCC5D"/>
<path d="M123.761 123.683C123.273 123.519 122.744 123.368 122.168 123.239C122.31 123.152 122.449 123.068 122.587 122.984C122.659 123.204 122.747 123.332 122.841 123.332C122.981 123.332 123.106 123.057 123.188 122.623C123.462 122.46 123.726 122.304 123.983 122.153C123.968 122.724 123.887 123.25 123.761 123.683Z" fill="#FCCC5D"/>
<path d="M122.587 122.984C122.467 122.624 122.388 122.018 122.388 121.329C122.388 120.225 122.591 116.488 122.841 116.488C123.093 116.488 123.295 120.225 123.295 121.329C123.295 121.822 123.255 122.275 123.188 122.622C122.993 122.739 122.791 122.86 122.587 122.984Z" fill="#EF9E4E"/>
<path d="M122.841 123.332C122.747 123.332 122.659 123.204 122.587 122.984C122.791 122.86 122.993 122.739 123.188 122.623C123.106 123.057 122.981 123.332 122.841 123.332Z" fill="#EFA252"/>
<path d="M79.4089 110.869C78.8579 110.869 78.3988 109.889 78.2902 108.581C78.5895 108.757 78.889 108.932 79.19 109.108C79.2546 109.266 79.3296 109.355 79.4089 109.355C79.4464 109.355 79.4833 109.336 79.5181 109.298C79.7833 109.45 80.0468 109.603 80.313 109.755C80.1038 110.433 79.7768 110.869 79.4089 110.869Z" fill="#FBC859"/>
<path d="M80.3127 109.755C80.0464 109.603 79.783 109.45 79.5177 109.297C79.7161 109.082 79.8623 108.294 79.8623 107.352C79.8623 106.248 79.6602 102.512 79.4085 102.512C79.158 102.512 78.9554 106.248 78.9554 107.352C78.9554 108.108 79.05 108.765 79.1896 109.108C78.8886 108.932 78.5891 108.757 78.2898 108.581C78.2735 108.389 78.2648 108.188 78.2648 107.983C78.2648 106.387 78.7761 100.998 79.4085 100.998C80.0416 100.998 80.5534 106.387 80.5534 107.983C80.5534 108.651 80.4632 109.266 80.3127 109.755Z" fill="#FCCC5D"/>
<path d="M79.4073 109.355C79.3285 109.355 79.2539 109.266 79.1896 109.108C79.2976 109.17 79.4079 109.234 79.516 109.297C79.4814 109.336 79.4447 109.355 79.4073 109.355Z" fill="#EF9E4E"/>
<path d="M79.5176 109.297C79.4089 109.234 79.2981 109.169 79.1894 109.107C79.0498 108.765 78.9552 108.108 78.9552 107.352C78.9552 106.248 79.1579 102.512 79.4084 102.512C79.66 102.512 79.8621 106.248 79.8621 107.352C79.8621 108.294 79.7159 109.081 79.5176 109.297Z" fill="#EFA252"/>
</svg>
