<svg width="175" height="190" viewBox="0 0 175 190" fill="none" xmlns="http://www.w3.org/2000/svg">
<path d="M55.8787 2.92808e-06C55.8697 0.00452555 55.8561 0.00453438 55.8516 0.009057C55.8606 0.00453438 55.8697 0.00452555 55.8787 2.92808e-06ZM55.5458 0.0950154L55.5413 0.0994873C55.5413 0.0994873 55.5458 0.0995381 55.5458 0.0950154Z" fill="#EEDDBC"/>
<path d="M63.5027 17.7788C17.0464 31.021 -9.87672 79.4614 3.37906 125.981C16.6349 172.489 65.0449 199.465 111.497 186.223C157.958 172.991 184.876 124.551 171.62 78.034C158.369 31.5184 109.959 4.54558 63.5027 17.7788Z" fill="#A42021"/>
<path d="M69.9252 23.9252C54.788 28.2353 41.3287 34.6167 32.2428 45.5614C24.5995 54.7514 24.5995 65.3207 22.1302 77.0556C19.29 90.5809 15.0658 105.475 20.2759 119.725C25.1151 132.934 35.6709 144.013 45.5393 152.974C57.0177 163.386 69.3825 170.047 84.4654 173.142C95.6906 175.445 107.775 174.414 119.434 171.718C128.697 169.568 135.386 164.84 142.73 159.933C150.744 154.581 156.443 148.237 161.694 140.4C168.274 130.573 168.505 121.409 169.703 109.212C170.639 99.8523 172.078 91.0527 169.269 81.2019C164.412 64.1404 157.791 48.8403 144.557 38.1081C123.735 21.2297 96.5589 16.3317 69.9252 23.9252Z" fill="#BD2D2D"/>
<path d="M66.5648 123.218C66.5648 125.912 59.4462 128.514 52.4904 119.757C44.6799 109.931 32.107 101.988 30.1487 100.424C30.0763 100.364 30.0401 100.313 30.0401 100.271C30.0401 99.2108 52.8432 103.755 66.2347 122.249C66.4563 122.561 66.5648 122.889 66.5648 123.218Z" fill="#C93131"/>
<path d="M113.524 121.274C113.524 122.344 90.8655 117.022 78.1072 98.0656C77.9082 97.7653 77.8132 97.4487 77.8132 97.138C77.8132 94.4227 85.0584 91.9777 91.7564 101.03C99.2277 111.116 111.52 119.493 113.42 121.12C113.492 121.182 113.524 121.233 113.524 121.274Z" fill="#C93131"/>
<path d="M162.82 104.05C162.82 122.472 157.14 137.192 145.128 137.872C140.755 138.123 127.119 104.302 105.433 79.9807C83.6384 55.5292 54.0469 40.2744 54.0469 36.5839C54.0469 36.5342 54.0514 36.4844 54.065 36.4347C55.7338 29.6734 114.569 9.47989 143.02 43.5397C155.932 58.989 162.82 83.7634 162.82 104.05Z" fill="#C93131"/>
<path d="M57.488 106.196L96.7172 145.119C116.422 160.905 122.645 135.275 138.637 144.136C143.576 146.876 118.688 160.978 121.718 164.038C124.527 171.631 119.064 175.272 117.793 184.16C129.28 171.677 138.94 173.396 148.917 159.395C150.505 155.687 119.294 182.762 146.448 146.102C158.293 130.113 130.574 133.812 124.283 139.918C106.066 157.582 79.1333 115.535 57.6328 106.058L57.488 106.196Z" fill="#A42021"/>
<path d="M140.325 91.2657C130.348 69.3152 119.883 52.743 108.192 48.2746C120.521 62.4078 130.927 76.9101 140.325 91.2657Z" fill="#A42021"/>
<path d="M16.418 72.6241C20.9361 69.3203 26.0558 66.9572 31.406 65.7497C49.207 61.7381 65.4884 73.387 87.0161 82.5964C68.3287 70.9615 43.504 48.0255 31.6819 50.6939C23.2246 52.6069 19.4798 64.9944 16.418 72.6241Z" fill="#A42021"/>
<path d="M75.9949 151.157C76.7502 151.1 77.5145 151 78.2743 150.827C77.4647 150.977 76.7185 151.085 75.9949 151.157Z" fill="#A42021"/>
<path d="M47.3796 130.359C50.4188 134.035 54.2133 138.132 59.8983 142.591C56.9359 138.927 53.3676 134.546 47.3796 130.359Z" fill="#A42021"/>
<path d="M11.304 108.642C11.7743 110.712 11.824 113.18 12.2537 115.094C12.6562 116.847 13.3617 118.135 14.9989 118.225C30.7286 121.14 40.6105 125.625 47.3809 130.358C39.1814 120.44 36.5085 113.621 17.1698 111.349C13.52 111.259 10.6256 105.599 11.304 108.642Z" fill="#A42021"/>
<path d="M75.9954 151.157C74.2271 151.3 72.5311 151.11 71.2286 150.286C66.7466 147.619 63.0472 145.053 59.8994 142.591C64.3994 148.155 67.5969 152.063 75.9954 151.157Z" fill="#A42021"/>
</svg>
