<svg width="145" height="120" viewBox="0 0 145 120" fill="none" xmlns="http://www.w3.org/2000/svg">
<path d="M11.3951 82.2942C10.6296 77.8686 12.2287 73.5752 14.5676 69.9736C16.191 67.4726 18.0854 63.545 21.3099 62.8837C22.2607 62.6877 23.6645 62.8259 24.537 63.3387C25.1349 63.6892 26.0365 64.9419 25.7841 65.3926L25.8337 66.0684C25.1989 66.1881 24.4326 66.7155 24.1051 67.3595C24.0224 67.5222 23.9522 68.1818 23.8807 68.3953C23.7462 68.7967 23.5727 68.8971 23.5049 69.3416C23.4575 69.6514 23.7 69.9907 23.5808 70.3933C23.4644 70.7851 22.9974 71.0097 22.9034 71.4695C22.7184 72.382 23.5887 72.7923 23.2914 73.6456C23.1653 74.0048 22.8573 74.2859 22.5493 74.5671C22.1929 74.8928 21.8395 75.2147 21.7761 75.6499C21.7243 76.0157 22.1475 76.2682 22.0999 76.6615C22.0541 77.0363 21.6331 77.485 21.434 77.7921C20.9919 78.4717 20.4059 79.069 20.2735 79.8773C20.2121 80.2441 20.426 80.5999 20.2752 80.9994C20.2005 81.1965 20.0156 81.3363 19.8307 81.4761C19.6597 81.6056 19.4903 81.7333 19.408 81.9065C19.2054 82.3339 19.3728 82.6125 19.2549 83.0197C19.0988 83.5612 18.846 83.627 18.5831 84.0945C18.3815 84.4526 18.4413 84.8604 18.2261 85.2491C18.1025 85.4703 17.8787 85.6403 17.6579 85.8065C17.5029 85.9243 17.3528 86.0368 17.2354 86.1668C16.305 87.1982 15.7171 88.2887 14.0262 87.5751C11.8759 86.6652 11.7339 84.2431 11.3951 82.2942" fill="#8C735B"/>
<path d="M9.40678 84.1136C7.8766 80.0818 11.4292 77.064 12.9604 73.4681C14.0011 71.0242 15.5113 68.1501 17.3424 66.2257C18.3079 65.2107 19.2535 64.2481 20.4729 63.534C21.323 63.0364 22.3567 62.7834 23.1435 62.2871L26.2806 60.1941C29.828 61.4242 29.166 64.9638 27.967 67.8644C27.1852 69.7537 26.0403 68.6827 25.2677 69.1688C24.3462 69.7478 24.2708 70.6111 24.649 71.7403C25.1659 73.2916 28.3158 71.8879 29.5711 71.7595C30.778 71.6328 32.4821 71.3119 33.5865 72.0872C35.1996 73.2211 34.7709 75.2847 34.2322 76.6857C33.7072 78.0488 32.7963 79.4946 31.4769 80.453C30.2162 81.3686 29.578 81.2129 28.0932 81.067C25.6572 80.8254 23.9433 80.4395 21.5513 80.568C21.7545 80.8513 20.7266 82.1188 20.948 82.6936C21.1695 83.2684 22.6386 83.1522 22.7454 83.4935C23.2445 85.0991 21.3111 88.8502 18.432 89.9915C17.0906 90.5228 14.1644 92.3782 10.3937 89.5659C8.87552 88.437 10.0589 85.823 9.40678 84.1136" fill="#634E40"/>
<path d="M33.1441 71.901C30.2659 69.9783 20.8932 72.373 20.2729 71.0566C19.6507 69.7419 21.6669 65.7734 23.7019 65.2447C25.7351 64.7179 23.826 67.87 25.9847 67.9509C26.9322 67.9858 30.2493 59.8049 24.4362 59.6885C19.3973 59.5896 12.6657 63.1869 8.87833 74.5056C5.60585 84.2851 8.02059 89.233 12.0955 89.9136C19.1373 91.0883 21.5203 83.3337 21.0866 83.0023C20.1663 82.3066 18.8709 86.2862 15.9368 85.028C14.6035 84.4588 15.5336 79.9167 18.3236 79.1426C20.3289 78.586 29.9553 81.2428 31.1354 79.608C32.3159 77.9734 35.0627 73.1791 33.1441 71.901" fill="#A5896A"/>
<path d="M23.7478 60.9084C23.7478 60.9084 23.7381 60.9094 23.7225 60.9114L23.7179 60.9071C23.7415 60.9059 23.7495 60.9067 23.7478 60.9084Z" fill="#BF9E7C"/>
<path d="M22.553 75.9485C22.1831 76.3403 21.6521 76.6338 21.2312 76.8266C19.4729 77.6313 17.0596 76.9724 15.525 78.1962C15.4189 78.2805 15.3204 78.372 15.2317 78.466C14.7395 78.9872 14.4808 79.6451 14.2253 80.2993C13.9698 80.9535 13.7195 81.6025 13.244 82.106C13.1636 82.1911 13.0743 82.2744 12.98 82.3497C11.3407 83.6659 9.65255 81.8136 9.67062 80.0967C9.68473 78.5304 10.2675 76.77 10.6711 75.3065C11.6247 71.847 13.0307 68.9221 15.2339 66.2099C15.479 65.9081 15.7526 65.5964 16.0489 65.2826C17.9843 63.2331 20.9113 61.0837 23.4923 60.9318C23.525 60.9291 23.6638 60.9193 23.7219 60.9138L24.5816 61.7189C24.9276 62.1093 24.7353 62.5683 24.3034 63.0257C23.4663 63.9122 21.7239 64.7956 21.2597 65.1622C20.5732 65.7045 19.7361 66.3697 19.0263 67.1214C18.3533 67.8341 17.7963 68.6229 17.5925 69.4567C17.0424 71.7142 18.4213 73.0598 20.4938 73.4439C21.4461 73.6221 22.8962 73.5593 23.003 74.8373C23.0378 75.2693 22.8443 75.64 22.553 75.9485" fill="#BF9E7C"/>
<path d="M77.9873 14.0188C80.6796 10.4238 84.899 8.63873 89.1234 7.86657C92.0564 7.32983 96.2127 6.01072 98.9073 7.9011C99.7026 8.45779 100.566 9.57335 100.792 10.5598C100.948 11.2351 100.656 12.7507 100.155 12.8767L99.6977 13.3767C99.1748 12.9973 98.2653 12.8023 97.5722 13.0063C97.3971 13.0579 96.8693 13.4597 96.665 13.5543C96.2808 13.7321 96.0886 13.6749 95.719 13.9307C95.4612 14.109 95.3809 14.5183 95.0064 14.708C94.6416 14.8923 94.1577 14.707 93.7588 14.9544C92.9684 15.4464 93.2675 16.3608 92.4431 16.7304C92.0953 16.8854 91.6794 16.8545 91.2636 16.8236C90.782 16.7881 90.3054 16.7521 89.9454 17.0048C89.6439 17.2183 89.7509 17.6994 89.4323 17.9348C89.1283 18.1588 88.513 18.1607 88.1531 18.2269C87.3554 18.3721 86.5188 18.356 85.8402 18.8147C85.5314 19.0219 85.4195 19.4217 85.0255 19.5863C84.8309 19.6673 84.6023 19.6289 84.3737 19.5905C84.1622 19.555 83.953 19.5195 83.7706 19.5786C83.3207 19.7247 83.2331 20.0377 82.8562 20.2315C82.3552 20.4898 82.1339 20.3512 81.6134 20.4811C81.2146 20.5803 80.9592 20.9037 80.5288 21.0142C80.2831 21.0762 80.0059 21.0302 79.7335 20.9838C79.5414 20.9519 79.3565 20.92 79.1814 20.9239C77.7928 20.9555 76.5962 21.2768 75.9542 19.5574C75.1395 17.3693 76.803 15.6032 77.9873 14.0188" fill="#8C735B"/>
<path d="M75.2994 13.8223C77.1803 9.94165 81.8135 10.4527 85.4792 9.09724C87.9706 8.17601 91.0972 7.3008 93.7535 7.3109C95.1543 7.31607 96.5034 7.34265 97.8599 7.73901C98.8053 8.01547 99.6989 8.59329 100.6 8.8247L104.276 9.66864C105.817 13.0923 102.789 15.0412 99.8565 16.1608C97.9461 16.8895 97.9387 15.3218 97.0549 15.0938C96.0012 14.8213 95.3217 15.3592 94.7604 16.4095C93.9874 17.8504 97.1706 19.1768 98.1258 20.0013C99.0465 20.7918 100.45 21.8105 100.644 23.1458C100.927 25.0971 99.1327 26.2022 97.7442 26.7724C96.3926 27.3266 94.7161 27.657 93.1134 27.3556C91.5822 27.0676 91.2572 26.4967 90.3438 25.317C88.847 23.38 87.9509 21.8689 86.2153 20.218C86.1488 20.5602 84.5215 20.683 84.2557 21.2386C83.9898 21.7943 85.0828 22.7827 84.9081 23.0946C84.0833 24.5599 80.0286 25.7296 77.2221 24.4199C75.9149 23.8093 72.5569 22.9556 72.0128 18.2832C71.7913 16.4043 74.5042 15.47 75.2994 13.8223" fill="#634E40"/>
<path d="M100.476 22.6964C99.8978 19.2836 91.7217 14.1131 92.253 12.7583C92.7817 11.4033 97.0514 10.1447 98.8329 11.2612C100.612 12.3778 97.0094 13.1539 98.4326 14.779C99.0577 15.4918 107.283 12.2869 103.377 7.98042C99.9893 4.24893 92.7521 1.82428 81.9223 6.84161C72.5651 11.1765 70.6255 16.3292 72.9284 19.7593C76.9089 25.6856 84.1831 22.0942 84.1263 21.5514C84.0003 20.4046 80.2174 22.195 79.1179 19.1979C78.6163 17.8377 82.5573 15.3955 85.0356 16.8926C86.8171 17.9684 91.4944 26.7916 93.4934 26.5272C95.4923 26.2633 100.864 24.9688 100.476 22.6964" fill="#A5896A"/>
<path d="M102.017 8.31747C102.017 8.31747 102.01 8.31114 101.998 8.30114V8.2948C102.015 8.31114 102.02 8.31747 102.017 8.31747Z" fill="#BF9E7C"/>
<path d="M90.2618 17.7748C89.7229 17.7748 89.145 17.5902 88.7158 17.4166C86.9235 16.6906 85.7458 14.4836 83.8023 14.208C83.6682 14.1888 83.5341 14.18 83.4049 14.18C82.688 14.18 82.032 14.4436 81.381 14.707C80.7299 14.9703 80.0861 15.2339 79.3936 15.2339C79.2766 15.2339 79.1546 15.2261 79.0352 15.2093C76.9527 14.921 77.1405 12.4219 78.4012 11.2563C79.5497 10.1912 81.2298 9.40625 82.5709 8.69495C85.7409 7.01315 88.8329 6.02728 92.3174 5.7671C92.7051 5.73808 93.1196 5.72297 93.5513 5.72297C96.3701 5.72297 99.9424 6.37549 101.825 8.14776C101.849 8.1697 101.952 8.26382 101.996 8.30235L102 9.48012C101.954 9.99975 101.488 10.1751 100.859 10.1751C99.6401 10.1751 97.8015 9.51475 97.2162 9.42892C96.3506 9.30212 95.2923 9.15021 94.2584 9.15021C93.2781 9.15021 92.3223 9.28676 91.5761 9.71106C89.5571 10.861 89.5254 12.7874 90.669 14.558C91.1933 15.3726 92.2345 16.3839 91.3786 17.339C91.0884 17.6609 90.6861 17.7748 90.2618 17.7748" fill="#BF9E7C"/>
<path d="M62.9873 62.0188C65.6796 58.4238 69.899 56.6387 74.1234 55.8666C77.0564 55.3298 81.2127 54.0107 83.9073 55.9011C84.7026 56.4578 85.5659 57.5733 85.7921 58.5598C85.9478 59.2351 85.6559 60.7507 85.155 60.8767L84.6977 61.3767C84.1748 60.9973 83.2653 60.8023 82.5722 61.0063C82.3971 61.0579 81.8693 61.4597 81.665 61.5543C81.2808 61.7321 81.0886 61.6749 80.719 61.9307C80.4612 62.109 80.3809 62.5183 80.0064 62.708C79.6416 62.8923 79.1577 62.707 78.7588 62.9544C77.9684 63.4464 78.2675 64.3608 77.4431 64.7304C77.0953 64.8854 76.6794 64.8545 76.2636 64.8236C75.782 64.7881 75.3054 64.7521 74.9454 65.0048C74.6439 65.2183 74.7509 65.6994 74.4323 65.9348C74.1283 66.1588 73.513 66.1607 73.1531 66.2269C72.3554 66.3721 71.5188 66.356 70.8402 66.8147C70.5314 67.0219 70.4195 67.4217 70.0255 67.5863C69.8309 67.6673 69.6023 67.6289 69.3737 67.5905C69.1622 67.555 68.953 67.5195 68.7706 67.5786C68.3207 67.7247 68.2331 68.0377 67.8562 68.2315C67.3552 68.4898 67.1339 68.3512 66.6134 68.4811C66.2146 68.5803 65.9592 68.9037 65.5288 69.0142C65.2831 69.0762 65.0059 69.0302 64.7335 68.9838C64.5414 68.9519 64.3565 68.92 64.1814 68.9239C62.7928 68.9555 61.5962 69.2768 60.9542 67.5574C60.1395 65.3693 61.803 63.6032 62.9873 62.0188" fill="#8C735B"/>
<path d="M60.2994 61.8223C62.1803 57.9416 66.8135 58.4527 70.4792 57.0972C72.9706 56.176 76.0972 55.3008 78.7535 55.3109C80.1543 55.3161 81.5034 55.3426 82.8599 55.739C83.8053 56.0155 84.6989 56.5933 85.6 56.8247L89.2755 57.6686C90.8167 61.0923 87.7886 63.0412 84.8565 64.1608C82.9461 64.8895 82.9387 63.3218 82.0549 63.0938C81.0012 62.8213 80.3217 63.3592 79.7604 64.4095C78.9874 65.8504 82.1706 67.1768 83.1258 68.0013C84.0465 68.7918 85.4498 69.8105 85.6443 71.1458C85.9274 73.0971 84.1327 74.2022 82.7442 74.7724C81.3926 75.3266 79.7161 75.657 78.1134 75.3556C76.5822 75.0676 76.2572 74.4967 75.3438 73.317C73.847 71.38 72.9509 69.8689 71.2153 68.218C71.1488 68.5602 69.5215 68.683 69.2557 69.2386C68.9898 69.7943 70.0828 70.7827 69.9081 71.0946C69.0833 72.5599 65.0286 73.7296 62.2221 72.4199C60.9149 71.8093 57.5569 70.9556 57.0128 66.2832C56.7913 64.4043 59.5042 63.47 60.2994 61.8223" fill="#634E40"/>
<path d="M85.476 70.6964C84.8978 67.2836 76.7217 62.1131 77.253 60.7583C77.7817 59.4033 82.0514 58.1447 83.8329 59.2612C85.6119 60.3778 82.0094 61.1539 83.4326 62.779C84.0577 63.4918 92.2832 60.2869 88.3768 55.9804C84.9893 52.2489 77.7521 49.8243 66.9223 54.8416C57.5651 59.1765 55.6255 64.3292 57.9284 67.7593C61.9089 73.6856 69.1831 70.0942 69.1263 69.5514C69.0003 68.4046 65.2174 70.195 64.1179 67.1979C63.6163 65.8377 67.5573 63.3955 70.0356 64.8926C71.8171 65.9684 76.4944 74.7916 78.4934 74.5272C80.4923 74.2633 85.8639 72.9688 85.476 70.6964" fill="#A5896A"/>
<path d="M87.0173 56.3175C87.0173 56.3175 87.0099 56.3111 86.9977 56.3011V56.2948C87.0148 56.3111 87.0197 56.3175 87.0173 56.3175Z" fill="#BF9E7C"/>
<path d="M75.2618 65.7748C74.7229 65.7748 74.145 65.5902 73.7158 65.4166C71.9235 64.6906 70.7458 62.4836 68.8023 62.208C68.6682 62.1888 68.5341 62.18 68.4049 62.18C67.688 62.18 67.032 62.4436 66.381 62.707C65.7299 62.9703 65.0861 63.2339 64.3936 63.2339C64.2766 63.2339 64.1546 63.2261 64.0352 63.2093C61.9527 62.921 62.1405 60.4219 63.4012 59.2563C64.5497 58.1912 66.2298 57.4063 67.5709 56.695C70.7409 55.0132 73.8329 54.0273 77.3174 53.7671C77.7051 53.7381 78.1196 53.723 78.5513 53.723C81.3701 53.723 84.9424 54.3755 86.8249 56.1478C86.8493 56.1697 86.9517 56.2638 86.9956 56.3023L87.0005 57.4801C86.9542 57.9998 86.4884 58.1751 85.8593 58.1751C84.6401 58.1751 82.8015 57.5148 82.2162 57.4289C81.3506 57.3021 80.2923 57.1502 79.2584 57.1502C78.2781 57.1502 77.3223 57.2868 76.5761 57.7111C74.5571 58.861 74.5254 60.7874 75.669 62.558C76.1933 63.3726 77.2345 64.3839 76.3786 65.339C76.0884 65.6609 75.6861 65.7748 75.2618 65.7748" fill="#BF9E7C"/>
<path d="M133.031 98.6335C129.081 100.769 124.501 100.622 120.342 99.5531C117.454 98.8114 113.128 98.2675 111.473 95.422C110.984 94.5833 110.668 93.2086 110.876 92.2182C111.018 91.5397 111.918 90.2859 112.425 90.3815L113.05 90.1191C113.366 90.6826 114.11 91.2409 114.825 91.346C115.005 91.3726 115.653 91.2289 115.878 91.2286C116.301 91.2282 116.452 91.3607 116.895 91.2833C117.204 91.2294 117.448 90.8914 117.867 90.8761C118.276 90.8616 118.638 91.2327 119.103 91.1752C120.027 91.0597 120.139 90.1041 121.042 90.1139C121.423 90.119 121.788 90.3213 122.152 90.5236C122.575 90.7576 122.992 90.99 123.425 90.9114C123.788 90.8439 123.893 90.3623 124.281 90.2821C124.651 90.2061 125.21 90.4621 125.565 90.5529C126.35 90.7553 127.103 91.1205 127.911 90.9883C128.278 90.9296 128.547 90.6135 128.974 90.6291C129.185 90.6371 129.376 90.7678 129.568 90.8985C129.745 91.0194 129.92 91.1392 130.11 91.162C130.58 91.2178 130.791 90.9703 131.214 90.9523C131.777 90.9277 131.92 91.1463 132.447 91.2465C132.851 91.3235 133.218 91.1368 133.655 91.217C133.904 91.2636 134.137 91.4215 134.365 91.5778C134.526 91.6872 134.68 91.7936 134.841 91.8635C136.115 92.4167 137.336 92.6263 137.198 94.4566C137.021 96.7847 134.771 97.6912 133.031 98.6335" fill="#8C735B"/>
<path d="M135.39 99.9383C132.056 102.674 128.063 100.268 124.167 99.9628C121.519 99.7552 118.313 99.2397 115.905 98.1175C114.636 97.5258 113.422 96.9363 112.356 96.008C111.614 95.3609 111.045 94.4618 110.323 93.8741L107.34 91.5676C107.375 87.8132 110.941 87.3126 114.073 87.5247C116.113 87.6635 115.462 89.0901 116.169 89.6674C117.012 90.3564 117.854 90.1527 118.804 89.4343C120.109 88.4499 117.775 85.9117 117.253 84.7628C116.749 83.6593 115.901 82.1463 116.284 80.8523C116.845 78.962 118.937 78.7106 120.437 78.7748C121.896 78.838 123.557 79.2405 124.886 80.1857C126.156 81.0889 126.212 81.7434 126.547 83.1973C127.094 85.5832 127.274 87.3308 128.158 89.557C128.362 89.2742 129.891 89.8445 130.365 89.4514C130.84 89.0583 130.261 87.7028 130.551 87.4929C131.914 86.508 136.085 87.1451 138.085 89.5103C139.016 90.6124 141.707 92.7947 140.243 97.2651C139.657 99.0639 136.802 98.7754 135.39 99.9383" fill="#634E40"/>
<path d="M116.249 81.3309C115.344 84.6719 120.601 92.7926 119.551 93.8001C118.503 94.8089 114.098 94.1626 112.949 92.4022C111.801 90.6429 115.398 91.4478 114.786 89.3759C114.517 88.4668 105.706 87.93 107.448 93.4771C108.96 98.2846 114.516 103.519 126.451 103.501C136.764 103.486 140.684 99.6205 140.03 95.5412C138.899 88.4922 130.79 88.705 130.614 89.2217C130.248 90.3157 134.433 90.2752 134.175 93.4573C134.061 94.9025 129.459 95.4685 127.836 93.0707C126.669 91.3474 126.12 81.3762 124.194 80.7787C122.268 80.1806 116.849 79.1051 116.249 81.3309" fill="#A5896A"/>
<path d="M108.824 93.7407C108.824 93.7407 108.828 93.7496 108.835 93.7637L108.832 93.7695C108.824 93.7475 108.822 93.7397 108.824 93.7407Z" fill="#BF9E7C"/>
<path d="M123.461 90.0798C123.95 90.3056 124.397 90.7153 124.714 91.0528C126.037 92.463 126.182 94.9604 127.831 96.025C127.945 96.0987 128.063 96.1628 128.18 96.217C128.831 96.5174 129.537 96.5529 130.239 96.5866C130.94 96.6203 131.635 96.6507 132.264 96.9409C132.37 96.99 132.478 97.0482 132.579 97.1135C134.349 98.2478 133.131 100.438 131.498 100.968C130.009 101.454 128.155 101.463 126.639 101.547C123.056 101.745 119.835 101.345 116.562 100.121C116.198 99.9849 115.816 99.8249 115.424 99.644C112.864 98.4628 109.894 96.3734 108.928 93.9754C108.915 93.9453 108.861 93.8169 108.837 93.7635L109.326 92.6921C109.586 92.2397 110.083 92.2757 110.654 92.5393C111.761 93.0502 113.153 94.4202 113.649 94.7434C114.382 95.2212 115.279 95.8026 116.218 96.2359C117.108 96.6466 118.033 96.9232 118.888 96.8506C121.203 96.6525 122.039 94.9167 121.743 92.8299C121.608 91.8705 121.087 90.516 122.264 90.0074C122.662 89.8368 123.075 89.902 123.461 90.0798" fill="#BF9E7C"/>
<path d="M51.7829 110.191C49.0912 106.596 48.5663 102.044 49.0146 97.7734C49.3253 94.808 49.2296 90.4484 51.8022 88.395C52.5602 87.7886 53.8737 87.2742 54.8839 87.3349C55.5758 87.3757 56.9479 88.0824 56.9278 88.5986L57.2788 89.1781C56.7676 89.573 56.3244 90.3908 56.325 91.1134C56.3252 91.2959 56.5622 91.9154 56.5954 92.1381C56.6578 92.5568 56.5489 92.7251 56.6903 93.1518C56.7888 93.4494 57.159 93.6416 57.2355 94.0544C57.3097 94.4563 56.9957 94.8686 57.1207 95.3209C57.3703 96.2178 58.3319 96.1883 58.4545 97.0834C58.5053 97.4608 58.3586 97.8511 58.2119 98.2415C58.0422 98.6935 57.8735 99.1408 58.0146 99.5573C58.1346 99.9068 58.6263 99.9395 58.7625 100.312C58.8919 100.666 58.7205 101.257 58.6827 101.621C58.5974 102.428 58.3465 103.226 58.5956 104.006C58.7075 104.361 59.0596 104.581 59.1067 105.005C59.1296 105.214 59.0284 105.423 58.9271 105.632C58.8335 105.825 58.7406 106.015 58.7459 106.207C58.7595 106.68 59.0352 106.852 59.1151 107.268C59.2218 107.822 59.0265 107.995 59.0046 108.531C58.9875 108.942 59.226 109.278 59.2108 109.722C59.2011 109.975 59.079 110.228 58.9577 110.476C58.8731 110.652 58.7905 110.82 58.7449 110.989C58.3843 112.331 58.3557 113.569 56.5251 113.701C54.1962 113.867 52.9698 111.774 51.7829 110.191" fill="#8C735B"/>
<path d="M50.8376 112.715C47.6434 109.818 49.4382 105.516 49.1695 101.617C48.987 98.9667 49.0274 95.7202 49.7849 93.1741C50.1842 91.8314 50.5895 90.5444 51.3517 89.3544C51.8832 88.5251 52.6892 87.8302 53.1649 87.0308L55.0095 83.7415C58.7286 83.2265 59.7461 86.6808 59.995 89.8095C60.1564 91.8478 58.65 91.4135 58.1824 92.1974C57.6243 93.1318 57.9492 93.9352 58.7989 94.7694C59.9639 95.9169 62.1329 93.2359 63.1929 92.5514C64.2107 91.8905 65.5832 90.8307 66.9193 91.02C68.8713 91.2977 69.4265 93.331 69.5827 94.8238C69.734 96.2767 69.579 97.9784 68.8387 99.4315C68.1312 100.82 67.4919 100.971 66.1027 101.515C63.8227 102.406 62.1204 102.841 60.0477 104.041C60.3573 104.201 60.0171 105.797 60.4754 106.209C60.9337 106.62 62.1899 105.85 62.44 106.105C63.6138 107.309 63.5947 111.529 61.5478 113.854C60.5939 114.936 58.8293 117.918 54.1928 117.124C52.3275 116.808 52.1948 113.942 50.8376 112.715" fill="#634E40"/>
<path d="M66.4406 91.0549C63.0031 90.649 55.7399 97.0387 54.5895 96.1475C53.4382 95.2587 53.4324 90.8074 55.0054 89.4123C56.5777 88.0196 56.3082 91.6949 58.2682 90.7868C59.1282 90.3876 58.3686 81.5925 53.1365 84.1285C48.6023 86.3286 44.2382 92.5904 46.0038 104.395C47.529 114.594 51.9273 117.906 55.8669 116.661C62.6742 114.51 61.2759 106.519 60.739 106.421C59.6032 106.219 60.2562 110.353 57.0707 110.564C55.6243 110.663 54.3904 106.193 56.5247 104.237C58.0585 102.83 67.8416 100.826 68.1507 98.8336C68.4602 96.8413 68.7304 91.3225 66.4406 91.0549" fill="#A5896A"/>
<path d="M53.0772 85.528C53.0772 85.528 53.0691 85.5333 53.056 85.5422L53.05 85.5404C53.0704 85.5286 53.0779 85.5257 53.0772 85.528Z" fill="#BF9E7C"/>
<path d="M58.8425 99.4705C58.6907 99.9876 58.3509 100.49 58.0635 100.853C56.8624 102.369 54.413 102.877 53.6015 104.665C53.5453 104.788 53.4991 104.914 53.4627 105.038C53.2609 105.726 53.3291 106.43 53.3985 107.128C53.468 107.827 53.5397 108.519 53.3447 109.184C53.3118 109.296 53.2699 109.411 53.2201 109.521C52.3573 111.438 50.0121 110.554 49.2486 109.016C48.5499 107.614 48.2697 105.781 47.9647 104.294C47.2434 100.779 47.1679 97.5344 47.8992 94.1176C47.9805 93.7374 48.0827 93.3354 48.2042 92.9212C48.9978 90.2164 50.6296 86.9722 52.8602 85.6648C52.8881 85.6476 53.0072 85.5758 53.0566 85.5446L54.1881 85.8715C54.6736 86.0622 54.7108 86.5585 54.5336 87.1621C54.1904 88.3321 53.0392 89.9104 52.7921 90.4478C52.4267 91.2427 51.983 92.2154 51.6919 93.2075C51.4159 94.1481 51.2779 95.1038 51.4749 95.9392C52.01 98.2003 53.8495 98.7731 55.8704 98.1742C56.7997 97.9005 58.0632 97.186 58.7387 98.2762C58.9659 98.6453 58.9619 99.0634 58.8425 99.4705" fill="#BF9E7C"/>
<path d="M12.9873 10.0188C15.6796 6.42381 19.899 4.63873 24.1234 3.86657C27.0564 3.32983 31.2127 2.01072 33.9073 3.9011C34.7026 4.45779 35.5659 5.57335 35.7921 6.55977C35.9478 7.23513 35.6559 8.75074 35.155 8.87671L34.6977 9.37672C34.1748 8.99733 33.2653 8.8023 32.5722 9.00634C32.3971 9.0579 31.8693 9.45967 31.665 9.55428C31.2808 9.73205 31.0886 9.67489 30.719 9.93074C30.4612 10.109 30.3809 10.5183 30.0064 10.708C29.6416 10.8923 29.1577 10.707 28.7588 10.9544C27.9684 11.4464 28.2675 12.3608 27.4431 12.7304C27.0953 12.8854 26.6794 12.8545 26.2636 12.8236C25.782 12.7881 25.3054 12.7521 24.9454 13.0048C24.6439 13.2183 24.7509 13.6994 24.4323 13.9348C24.1283 14.1588 23.513 14.1607 23.1531 14.2269C22.3554 14.3721 21.5188 14.356 20.8402 14.8147C20.5314 15.0219 20.4195 15.4217 20.0255 15.5863C19.8309 15.6673 19.6023 15.6289 19.3737 15.5905C19.1622 15.555 18.953 15.5195 18.7706 15.5786C18.3207 15.7247 18.2331 16.0377 17.8562 16.2315C17.3552 16.4898 17.1339 16.3512 16.6134 16.4811C16.2146 16.5803 15.9592 16.9037 15.5288 17.0142C15.2831 17.0762 15.0059 17.0302 14.7335 16.9838C14.5414 16.9519 14.3565 16.92 14.1814 16.9239C12.7928 16.9555 11.5962 17.2768 10.9542 15.5574C10.1395 13.3693 11.803 11.6032 12.9873 10.0188" fill="#8C735B"/>
<path d="M10.2994 9.82228C12.1803 5.94165 16.8135 6.45274 20.4792 5.09724C22.9706 4.17601 26.0972 3.3008 28.7535 3.3109C30.1543 3.31607 31.5034 3.34265 32.8599 3.73901C33.8053 4.01547 34.6989 4.59329 35.6 4.8247L39.2755 5.66864C40.8167 9.09235 37.7886 11.0412 34.8565 12.1608C32.9461 12.8895 32.9387 11.3218 32.0549 11.0938C31.0012 10.8213 30.3217 11.3592 29.7604 12.4095C28.9874 13.8504 32.1706 15.1768 33.1258 16.0013C34.0465 16.7918 35.4498 17.8105 35.6443 19.1458C35.9274 21.0971 34.1327 22.2022 32.7442 22.7724C31.3926 23.3266 29.7161 23.657 28.1134 23.3556C26.5822 23.0676 26.2572 22.4967 25.3438 21.317C23.847 19.38 22.9509 17.8689 21.2153 16.218C21.1488 16.5602 19.5215 16.683 19.2557 17.2386C18.9898 17.7943 20.0828 18.7827 19.9081 19.0946C19.0833 20.5599 15.0286 21.7296 12.2221 20.4199C10.9149 19.8093 7.55689 18.9556 7.01282 14.2832C6.79125 12.4043 9.50423 11.47 10.2994 9.82228" fill="#634E40"/>
<path d="M35.476 18.6964C34.8978 15.2836 26.7217 10.1131 27.253 8.75833C27.7817 7.40331 32.0514 6.14466 33.8329 7.26124C35.6119 8.37782 32.0094 9.15392 33.4326 10.779C34.0577 11.4918 42.2832 8.28688 38.3768 3.98042C34.9893 0.248928 27.7521 -2.17572 16.9223 2.84161C7.56515 7.17648 5.62552 12.3292 7.92837 15.7593C11.9089 21.6856 19.1831 18.0942 19.1263 17.5514C19.0003 16.4046 15.2174 18.195 14.1179 15.1979C13.6163 13.8377 17.5573 11.3955 20.0356 12.8926C21.8171 13.9684 26.4944 22.7916 28.4934 22.5272C30.4923 22.2633 35.8639 20.9688 35.476 18.6964" fill="#A5896A"/>
<path d="M37.0173 4.31747C37.0173 4.31747 37.0099 4.31114 36.9977 4.30114V4.2948C37.0148 4.31114 37.0197 4.31747 37.0173 4.31747Z" fill="#BF9E7C"/>
<path d="M25.2618 13.7748C24.7229 13.7748 24.145 13.5902 23.7158 13.4166C21.9235 12.6906 20.7458 10.4836 18.8023 10.208C18.6682 10.1888 18.5341 10.18 18.4049 10.18C17.688 10.18 17.032 10.4436 16.381 10.707C15.7299 10.9703 15.0861 11.2339 14.3936 11.2339C14.2766 11.2339 14.1546 11.2261 14.0352 11.2093C11.9527 10.921 12.1405 8.42188 13.4012 7.2563C14.5497 6.19119 16.2298 5.40625 17.5709 4.69495C20.7409 3.01315 23.8329 2.02728 27.3174 1.7671C27.7051 1.73808 28.1196 1.72297 28.5513 1.72297C31.3701 1.72297 34.9424 2.37549 36.8249 4.14776C36.8493 4.1697 36.9517 4.26382 36.9956 4.30235L37.0005 5.48012C36.9542 5.99975 36.4884 6.17508 35.8593 6.17508C34.6401 6.17508 32.8015 5.51475 32.2162 5.42892C31.3506 5.30212 30.2923 5.15021 29.2584 5.15021C28.2781 5.15021 27.3223 5.28676 26.5761 5.71106C24.5571 6.86103 24.5254 8.78739 25.669 10.558C26.1933 11.3726 27.2345 12.3839 26.3786 13.339C26.0884 13.6609 25.6861 13.7748 25.2618 13.7748" fill="#BF9E7C"/>
<path d="M120.276 34.8836C123.879 36.5601 126.193 39.8887 127.63 43.4058C128.629 45.8477 130.528 49.2063 129.382 51.8836C129.044 52.6736 128.236 53.6242 127.423 53.9996C126.866 54.2574 125.501 54.2806 125.301 53.8698L124.784 53.5649C125.018 53.0431 125.021 52.22 124.718 51.657C124.642 51.5148 124.198 51.131 124.079 50.9713C123.855 50.671 123.869 50.4942 123.58 50.2207C123.379 50.03 123.01 50.035 122.778 49.7452C122.552 49.4629 122.624 49.0101 122.337 48.7098C121.767 48.115 121.03 48.5405 120.56 47.8939C120.362 47.621 120.313 47.2553 120.264 46.8896C120.207 46.4662 120.152 46.0469 119.868 45.7813C119.628 45.559 119.231 45.7393 118.969 45.5063C118.72 45.2838 118.606 44.7514 118.483 44.4518C118.212 43.7875 118.074 43.0602 117.553 42.5562C117.317 42.3265 116.951 42.3024 116.737 41.9913C116.631 41.8376 116.623 41.6326 116.614 41.4277C116.607 41.238 116.599 41.0505 116.515 40.9033C116.306 40.5403 116.019 40.5215 115.783 40.2304C115.468 39.8436 115.548 39.6268 115.341 39.1998C115.182 38.8725 114.856 38.7103 114.682 38.3577C114.583 38.1563 114.572 37.9078 114.563 37.6635C114.556 37.4914 114.55 37.3255 114.514 37.1746C114.234 35.978 113.738 35.0004 115.11 34.1315C116.856 33.0277 118.688 34.1465 120.276 34.8836" fill="#8C735B"/>
<path d="M119.957 32.5204C123.659 33.4425 124.06 37.5473 125.901 40.4745C127.153 42.464 128.48 45.0118 128.954 47.3137C129.205 48.5275 129.428 49.7005 129.331 50.9472C129.264 51.8161 128.926 52.6951 128.89 53.5174L128.829 56.8536C126.145 58.8113 123.906 56.5442 122.403 54.2092C121.424 52.6878 122.78 52.3959 122.816 51.5892C122.861 50.6272 122.271 50.1368 121.26 49.842C119.871 49.435 119.302 52.4327 118.762 53.4099C118.245 54.351 117.619 55.7515 116.498 56.163C114.86 56.7634 113.576 55.4107 112.83 54.3122C112.104 53.2428 111.513 51.8514 111.482 50.4088C111.452 49.0305 111.888 48.6452 112.743 47.6395C114.148 45.9909 115.293 44.9398 116.406 43.1365C116.098 43.1412 115.695 41.7546 115.166 41.6255C114.636 41.4965 113.979 42.6229 113.677 42.5283C112.259 42.081 110.508 38.7831 111.131 36.1146C111.421 34.8715 111.549 31.8086 115.496 30.4868C117.082 29.9529 118.385 32.1319 119.957 32.5204" fill="#634E40"/>
<path d="M116.857 55.9355C119.706 54.8136 122.695 46.7929 123.964 47.0062C125.234 47.2174 127.101 50.6851 126.459 52.4309C125.816 54.1746 124.488 51.1966 123.34 52.7248C122.836 53.3958 127.109 59.9345 130.127 55.7681C132.741 52.1555 133.523 45.4477 127.207 36.9841C121.75 29.6713 116.935 28.9299 114.384 31.5483C109.978 36.0739 114.412 41.7185 114.871 41.5705C115.841 41.2526 113.602 38.3031 115.997 36.8054C117.084 36.1234 119.916 39.0912 119.071 41.5096C118.464 43.248 111.675 48.9043 112.268 50.587C112.861 52.2697 114.96 56.6851 116.857 55.9355" fill="#A5896A"/>
<path d="M129.587 54.6522C129.587 54.6522 129.591 54.6447 129.598 54.6323L129.603 54.6312C129.592 54.6489 129.588 54.6543 129.587 54.6522Z" fill="#BF9E7C"/>
<path d="M119.258 46.1953C119.16 45.7287 119.215 45.1947 119.287 44.7915C119.589 43.1075 121.286 41.6859 121.171 39.953C121.163 39.8334 121.146 39.7156 121.123 39.6037C120.992 38.983 120.644 38.463 120.298 37.9472C119.951 37.4314 119.606 36.922 119.48 36.3224C119.458 36.2211 119.443 36.1141 119.436 36.0075C119.306 34.152 121.504 33.8596 122.743 34.7389C123.874 35.5395 124.86 36.8513 125.72 37.883C127.753 40.3216 129.17 42.8194 130.03 45.7891C130.125 46.1195 130.214 46.4757 130.292 46.8494C130.806 49.2902 130.891 52.5021 129.699 54.4547C129.685 54.4798 129.622 54.5857 129.596 54.6307L128.578 54.8493C128.119 54.9038 127.883 54.5325 127.768 53.9877C127.546 52.9321 127.783 51.2199 127.751 50.6975C127.703 49.9249 127.642 48.9809 127.454 48.0857C127.275 47.2369 126.983 46.4341 126.48 45.8653C125.116 44.3264 123.443 44.6497 122.118 45.9623C121.508 46.5645 120.822 47.6502 119.839 47.083C119.507 46.8904 119.336 46.5627 119.258 46.1953" fill="#BF9E7C"/>
</svg>
